<svg width="16" height="24" viewBox="0 0 16 24" fill="none" xmlns="http://www.w3.org/2000/svg">
<path d="M13.8234 9.31055L13.8039 9.31001L13.7844 9.31023L10.8366 9.34367L14.6251 3.06763C14.7499 2.86104 14.8178 2.62298 14.8181 2.37772C14.8184 2.13246 14.751 1.89424 14.6265 1.68736L14.6265 1.68735C14.5023 1.48087 14.3269 1.31477 14.1224 1.2012C13.9181 1.08777 13.6896 1.0292 13.4592 1.02829C13.4592 1.02829 13.4592 1.02829 13.4592 1.02829L6.35209 1.00001L6.3518 1.00001C6.04115 0.998865 5.73382 1.09035 5.47275 1.26741L6.03404 2.09503L5.47275 1.26741C5.21128 1.44473 5.00661 1.7013 4.89619 2.00685C4.89612 2.00704 4.89606 2.00723 4.89599 2.00742L1.20336 12.2015C0.980688 12.5478 0.970178 12.9463 1.03717 13.227C1.11457 13.5513 1.44226 14.1863 2.20891 14.1863H5.55622L2.34662 20.7782C2.03668 21.3526 2.13766 21.9988 2.44868 22.431C2.61073 22.6563 2.88149 22.8936 3.2655 22.9735C3.68585 23.061 4.08415 22.9265 4.37583 22.6748L4.42008 22.6366L4.45958 22.5935L14.6169 11.5145C15.0049 11.1372 15.042 10.6269 14.968 10.2916C14.8966 9.96835 14.5843 9.33161 13.8234 9.31055Z" stroke="white" stroke-width="2"/>
</svg>
